<svg width="22" height="17" viewBox="0 0 22 17" fill="none" xmlns="http://www.w3.org/2000/svg">
<path d="M8.86111 7.58437C10.0757 6.87187 10.7097 5.79375 10.7097 4.11562C10.7097 0.80625 8.7007 0 6.38229 0H0V16.6125H6.56181C9.02153 16.6125 11.3323 15.1641 11.3323 11.7891C11.3323 9.70312 10.5264 8.16094 8.86111 7.58437ZM2.97535 2.83594H5.76736C6.84062 2.83594 7.80694 3.20625 7.80694 4.73437C7.80694 6.14531 7.05451 6.7125 5.99271 6.7125H2.97535V2.83594ZM6.15694 13.7906H2.97535V9.21563H6.21806C7.52812 9.21563 8.35694 9.88594 8.35694 11.5875C8.35694 13.2656 7.36771 13.7906 6.15694 13.7906ZM19.8497 2.50781H14.3611V0.871875H19.8497V2.50781ZM22 10.7719C22 7.21406 20.3042 4.24687 17.2295 4.24687C14.2427 4.24687 12.2146 7.00312 12.2146 10.6125C12.2146 14.3578 14.1358 16.9266 17.2295 16.9266C19.5708 16.9266 21.0872 15.6328 21.8167 12.8813H19.441C19.1851 13.9078 18.1309 14.4516 17.3135 14.4516C15.7361 14.4516 14.9073 13.3172 14.9073 11.3906H21.9771C21.9885 11.1938 22 10.9828 22 10.7719ZM14.9111 9.30938C14.999 7.72969 15.8545 6.74062 17.1455 6.74062C18.4976 6.74062 19.1774 7.71563 19.292 9.30938H14.9111Z" fill="black"/>
</svg>
