<svg width="22" height="24" viewBox="0 0 22 24" fill="none" xmlns="http://www.w3.org/2000/svg">
<path d="M10.6562 0C4.78036 0 0 5.21494 0 11.625C0 18.0351 4.78036 23.25 10.6562 23.25C16.5321 23.25 21.3125 18.0351 21.3125 11.625C21.3125 5.21494 16.5321 0 10.6562 0ZM17.7018 5.36091C18.9695 7.05056 19.7372 9.20264 19.7572 11.5463C19.4572 11.4771 16.4479 10.8112 13.4193 11.2267C13.1721 10.5685 12.9388 9.98953 12.6193 9.27605C15.9847 7.77712 17.5099 5.64408 17.7018 5.36091ZM16.69 4.21266C16.5263 4.46705 15.1561 6.47606 11.9195 7.79948C10.428 4.80998 8.77486 2.35411 8.52328 1.98661C11.4097 1.22756 14.4515 2.04614 16.69 4.21266ZM6.78653 2.65406C7.02651 3.01308 8.653 5.472 10.1612 8.39667C5.90352 9.63009 2.15351 9.61233 1.74642 9.60647C2.33664 6.52523 4.24007 3.96436 6.78653 2.65406ZM1.55418 11.6401C1.55418 11.5386 1.55603 11.4375 1.55882 11.3367C1.95705 11.3456 6.36788 11.4076 10.9134 9.92362C11.1739 10.4799 11.4229 11.0446 11.6513 11.6087C8.35996 12.6201 5.36955 15.5241 3.89413 18.2793C2.44037 16.519 1.55418 14.1905 1.55418 11.6401ZM5.06932 19.4736C6.02009 17.3533 8.60041 14.6163 12.27 13.2506C13.5479 16.8733 14.0763 19.9094 14.2117 20.7805C11.285 22.1405 7.76574 21.7674 5.06932 19.4736ZM15.7419 19.8715C15.6486 19.2675 15.1641 16.3607 13.9737 12.7918C16.8259 12.2937 19.3319 13.1091 19.6432 13.2163C19.2375 15.9791 17.7839 18.3652 15.7419 19.8715Z" fill="black"/>
</svg>
