<svg width="22" height="20" viewBox="0 0 22 20" fill="none" xmlns="http://www.w3.org/2000/svg">
<path d="M19.7386 4.85784C19.7525 5.07103 19.7525 5.28427 19.7525 5.49745C19.7525 12 15.2157 19.4924 6.92386 19.4924C4.36928 19.4924 1.9962 18.6852 0 17.2843C0.362957 17.3299 0.711906 17.3452 1.08883 17.3452C3.19666 17.3452 5.13704 16.5685 6.68654 15.2437C4.7043 15.198 3.04313 13.7817 2.47079 11.8325C2.75 11.8781 3.02917 11.9086 3.32234 11.9086C3.72715 11.9086 4.132 11.8477 4.50888 11.7411C2.4429 11.2842 0.893363 9.30455 0.893363 6.91369V6.8528C1.49359 7.21828 2.19162 7.4467 2.93141 7.47712C1.71695 6.59386 0.921293 5.08627 0.921293 3.38067C0.921293 2.46698 1.1446 1.62942 1.53549 0.898453C3.75504 3.88322 7.09135 5.83242 10.8324 6.04566C10.7626 5.68017 10.7207 5.2995 10.7207 4.91878C10.7207 2.20809 12.7309 0 15.2296 0C16.5278 0 17.7004 0.593906 18.524 1.5533C19.543 1.34011 20.5202 0.928922 21.3857 0.365484C21.0506 1.50764 20.3387 2.46703 19.4035 3.07613C20.3109 2.96958 21.1903 2.69541 21.9999 2.31473C21.3858 3.28931 20.618 4.1573 19.7386 4.85784Z" fill="black"/>
</svg>
