<svg width="22" height="24" viewBox="0 0 22 24" fill="none" xmlns="http://www.w3.org/2000/svg">
<path d="M10.6562 0C4.77095 0 0 5.20467 0 11.625C0 18.0453 4.77095 23.25 10.6562 23.25C16.5415 23.25 21.3125 18.0453 21.3125 11.625C21.3125 5.20467 16.5415 0 10.6562 0ZM15.6894 16.254C15.6209 16.3416 13.9802 18.3977 10.9692 18.3977C7.33008 18.3977 4.76089 15.4324 4.76089 11.5742C4.76089 7.76316 7.42513 4.85231 10.9382 4.85231C13.8152 4.85231 15.3195 6.60145 15.3821 6.67594C15.4592 6.76767 15.5063 6.88472 15.5159 7.00876C15.5256 7.1328 15.4972 7.25682 15.4353 7.36139L14.4736 8.98584C14.2997 9.27961 13.9248 9.33042 13.6901 9.09342C13.6801 9.08339 12.5502 7.97405 11.0312 7.97405C9.04969 7.97405 7.85516 9.54788 7.85516 11.5404C7.85516 13.3967 8.95147 15.276 11.0468 15.276C12.7095 15.276 13.8517 13.9476 13.8631 13.9342C14.0836 13.6733 14.4672 13.6982 14.6584 13.9835L15.7131 15.5572C15.7816 15.6593 15.8165 15.7837 15.8121 15.9101C15.8078 16.0366 15.7646 16.1577 15.6894 16.254Z" fill="#76099C" fill-opacity="0.78"/>
</svg>
