<svg width="50" height="40" viewBox="0 0 50 40" fill="none" xmlns="http://www.w3.org/2000/svg">
<path d="M7.89474 0H42.1053C44.1991 0 46.2071 0.842855 47.6877 2.34315C49.1682 3.84344 50 5.87827 50 8V32C50 34.1217 49.1682 36.1566 47.6877 37.6569C46.2071 39.1571 44.1991 40 42.1053 40H7.89474C5.80092 40 3.79287 39.1571 2.31232 37.6569C0.831765 36.1566 0 34.1217 0 32V8C0 5.87827 0.831765 3.84344 2.31232 2.34315C3.79287 0.842855 5.80092 0 7.89474 0ZM7.89474 2.66667C6.61053 2.66667 5.43158 3.13333 4.51842 3.90933L25 17.3867L45.4816 3.90933C44.5357 3.1051 43.34 2.66503 42.1053 2.66667H7.89474ZM25 20.5653L2.98421 6.08C2.75075 6.69247 2.6312 7.34343 2.63158 8V32C2.63158 33.4145 3.18609 34.771 4.17312 35.7712C5.16016 36.7714 6.49886 37.3333 7.89474 37.3333H42.1053C43.5011 37.3333 44.8398 36.7714 45.8269 35.7712C46.8139 34.771 47.3684 33.4145 47.3684 32V8C47.3684 7.32267 47.2447 6.67467 47.0158 6.08L25 20.5653Z" fill="#76099C" fill-opacity="0.78"/>
</svg>
