<svg width="121" height="27" viewBox="0 0 121 27" fill="none" xmlns="http://www.w3.org/2000/svg">
<path d="M22.768 0.368V26H18.592L5.812 9.656V26H0.556V0.368H4.696L17.476 16.676V0.368H22.768ZM27.9076 0.368H45.5836V4.724H33.3796V10.772H44.8276V15.164H33.3796V21.644H45.5836V26H27.9076V0.368ZM84.8343 26.324C81.2343 26.324 78.4983 25.4 76.6263 23.552C74.7543 21.704 73.8183 18.992 73.8183 15.416V0.368H79.3263V15.668C79.3263 17.708 79.7943 19.268 80.7303 20.348C81.6903 21.404 83.0583 21.932 84.8343 21.932C86.6103 21.932 87.9663 21.404 88.9023 20.348C89.8383 19.268 90.3063 17.708 90.3063 15.668V0.368H95.8503V15.416C95.8503 18.968 94.9023 21.68 93.0063 23.552C91.1343 25.4 88.4103 26.324 84.8343 26.324ZM109.786 26.324C107.842 26.324 105.97 26.072 104.17 25.568C102.394 25.04 100.918 24.308 99.7416 23.372L101.542 19.34C104.014 21.068 106.774 21.932 109.822 21.932C111.454 21.932 112.702 21.68 113.566 21.176C114.454 20.648 114.898 19.916 114.898 18.98C114.898 18.164 114.49 17.528 113.674 17.072C112.882 16.592 111.478 16.136 109.462 15.704C107.206 15.248 105.406 14.696 104.062 14.048C102.742 13.376 101.77 12.572 101.146 11.636C100.546 10.676 100.246 9.488 100.246 8.072C100.246 6.536 100.666 5.156 101.506 3.932C102.37 2.708 103.57 1.76 105.106 1.088C106.642 0.391999 108.418 0.0439994 110.434 0.0439994C112.258 0.0439994 114.01 0.307999 115.69 0.835998C117.37 1.364 118.714 2.084 119.722 2.996L117.922 7.028C115.666 5.3 113.182 4.436 110.47 4.436C109.03 4.436 107.878 4.724 107.014 5.3C106.15 5.876 105.718 6.656 105.718 7.64C105.718 8.216 105.874 8.696 106.186 9.08C106.522 9.464 107.074 9.812 107.842 10.124C108.61 10.412 109.702 10.7 111.118 10.988C114.406 11.708 116.77 12.644 118.21 13.796C119.674 14.948 120.406 16.52 120.406 18.512C120.406 20.912 119.47 22.82 117.598 24.236C115.726 25.628 113.122 26.324 109.786 26.324Z" fill="black" fill-opacity="0.78"/>
<path d="M72.1023 26H65.5503L59.1423 17.144L52.7343 26H46.1823L55.9383 13.004L46.4703 0.368H53.0223L59.1423 8.9L65.3343 0.368H71.8863L62.3103 13.004L72.1023 26Z" fill="#76099C" fill-opacity="0.78"/>
</svg>
