<svg width="89" height="27" viewBox="0 0 89 27" fill="none" xmlns="http://www.w3.org/2000/svg">
<path d="M15.512 8.912V26H12.728L4.208 15.104V26H0.704V8.912H3.464L11.984 19.784V8.912H15.512ZM18.9384 8.912H30.7224V11.816H22.5864V15.848H30.2184V18.776H22.5864V23.096H30.7224V26H18.9384V8.912ZM65.0575 26.216C62.6575 26.216 60.8335 25.6 59.5855 24.368C58.3375 23.136 57.7135 21.328 57.7135 18.944V8.912H61.3855V19.112C61.3855 20.472 61.6975 21.512 62.3215 22.232C62.9615 22.936 63.8735 23.288 65.0575 23.288C66.2415 23.288 67.1455 22.936 67.7695 22.232C68.3935 21.512 68.7055 20.472 68.7055 19.112V8.912H72.4015V18.944C72.4015 21.312 71.7695 23.12 70.5055 24.368C69.2575 25.6 67.4415 26.216 65.0575 26.216ZM81.6917 26.216C80.3957 26.216 79.1477 26.048 77.9477 25.712C76.7637 25.36 75.7797 24.872 74.9957 24.248L76.1957 21.56C77.8437 22.712 79.6837 23.288 81.7157 23.288C82.8037 23.288 83.6357 23.12 84.2117 22.784C84.8037 22.432 85.0997 21.944 85.0997 21.32C85.0997 20.776 84.8277 20.352 84.2837 20.048C83.7557 19.728 82.8197 19.424 81.4757 19.136C79.9717 18.832 78.7717 18.464 77.8757 18.032C76.9957 17.584 76.3477 17.048 75.9317 16.424C75.5317 15.784 75.3317 14.992 75.3317 14.048C75.3317 13.024 75.6117 12.104 76.1717 11.288C76.7477 10.472 77.5477 9.84 78.5717 9.392C79.5957 8.928 80.7797 8.696 82.1237 8.696C83.3397 8.696 84.5077 8.872 85.6277 9.224C86.7477 9.576 87.6437 10.056 88.3157 10.664L87.1157 13.352C85.6117 12.2 83.9557 11.624 82.1477 11.624C81.1877 11.624 80.4197 11.816 79.8437 12.2C79.2677 12.584 78.9797 13.104 78.9797 13.76C78.9797 14.144 79.0837 14.464 79.2917 14.72C79.5157 14.976 79.8837 15.208 80.3957 15.416C80.9077 15.608 81.6357 15.8 82.5797 15.992C84.7717 16.472 86.3477 17.096 87.3077 17.864C88.2837 18.632 88.7717 19.68 88.7717 21.008C88.7717 22.608 88.1477 23.88 86.8997 24.824C85.6517 25.752 83.9157 26.216 81.6917 26.216Z" fill="black" fill-opacity="0.78"/>
<path d="M56.8016 26H50.2496L43.8416 17.144L37.4336 26H30.8816L40.6376 13.004L31.1696 0.368H37.7216L43.8416 8.9L50.0336 0.368H56.5856L47.0096 13.004L56.8016 26Z" fill="#76099C" fill-opacity="0.78"/>
</svg>
