<svg width="40" height="51" viewBox="0 0 40 51" fill="none" xmlns="http://www.w3.org/2000/svg">
<path d="M36.625 50.75C38.3479 50.75 39.75 48.9834 39.75 46.8125V37.625C39.75 35.4541 38.3479 33.6875 36.625 33.6875C34.1875 33.6875 31.7917 33.2045 29.5 32.2516C28.9522 32.0337 28.3677 32.0072 27.8089 32.175C27.2501 32.3428 26.738 32.6986 26.3271 33.2045L23.3271 36.9845C18.1419 33.4376 13.8834 28.0738 11.0667 21.5416L14.0417 17.7695C14.9 16.7668 15.2084 15.2416 14.8417 13.7743C14.087 10.8823 13.7044 7.85679 13.7084 4.8125C13.7084 2.64163 12.3063 0.875 10.5834 0.875H3.29169C1.56877 0.875 0.166687 2.64163 0.166687 4.8125C0.166687 30.1438 16.5209 50.75 36.625 50.75ZM3.29169 3.5H10.5834C10.8596 3.5 11.1246 3.63828 11.3199 3.88442C11.5153 4.13056 11.625 4.4644 11.625 4.8125C11.625 8.16463 12.0417 11.4564 12.8604 14.5775C12.9206 14.804 12.9276 15.0475 12.8807 15.2789C12.8338 15.5103 12.7349 15.7198 12.5959 15.8821L8.52085 21.0429C11.9313 29.5164 16.9688 35.8636 23.725 40.1975L27.7854 35.0788C27.924 34.906 28.0972 34.784 28.2866 34.7257C28.4759 34.6674 28.6743 34.6752 28.8604 34.748C31.3521 35.7875 33.9646 36.3125 36.625 36.3125C37.1979 36.3125 37.6667 36.9031 37.6667 37.625V46.8125C37.6667 47.5344 37.1979 48.125 36.625 48.125C17.6709 48.125 2.25002 28.6948 2.25002 4.8125C2.25002 4.4644 2.35977 4.13056 2.55512 3.88442C2.75047 3.63828 3.01542 3.5 3.29169 3.5Z" fill="#76099C" fill-opacity="0.78"/>
</svg>
